# xmcd
#
# Track frame offsets:
#	150
#	10485
#	24681
#	35990
#	47580
#	58778
#	70635
#	81985
#	102958
#	113124
#	125722
#	143030
#	156061
#	165847
#	180759
#
# Disc length: 2662 seconds
# Revision: 0
# Processed by: cddbd v1.5.2PL0 Copyright (c) Steve Scherf et al.
# Submitted via: dBpowerAMP V12.0
#
DISCID=c20a640f
DTITLE=The Karl Shiflett and Big Country Show - Sho-Nuff Country
DYEAR=2016
DGENRE=Country
TTITLE0=A Six Pack to Go
TTITLE1=My Bucket's Got a Hole in It
TTITLE2=Pick Me Up on Your Way Down
TTITLE3=Blue Grass Stomp
TTITLE4=Only You
TTITLE5=Sally was a Good Old Girl
TTITLE6=Snow Deer
TTITLE7=The Waltz You Saved For Me
TTITLE8=Oh Lonesome Me
TTITLE9=Walking Down the Line
TTITLE10=I Got Rhythm
TTITLE11=I'm Troubled
TTITLE12=Why Baby Why
TTITLE13=Yes Sir That's My Baby
TTITLE14=Bring it on Down to My House
EXTD=
EXTT0=
EXTT1=
EXTT2=
EXTT3=
EXTT4=
EXTT5=
EXTT6=
EXTT7=
EXTT8=
EXTT9=
EXTT10=
EXTT11=
EXTT12=
EXTT13=
EXTT14=
PLAYORDER=
